<?xml version="1.0" encoding="UTF-8" standalone="no"?>
<!DOCTYPE svg PUBLIC "-//W3C//DTD SVG 1.1//EN"
 "http://www.w3.org/Graphics/SVG/1.1/DTD/svg11.dtd">
<!-- Generated by graphviz version 9.0.0 (20230911.1827)
 -->
<!-- Pages: 1 -->
<svg width="2241pt" height="787pt"
 viewBox="0.00 0.00 2241.00 787.26" xmlns="http://www.w3.org/2000/svg" xmlns:xlink="http://www.w3.org/1999/xlink">
<g id="graph0" class="graph" transform="scale(1 1) rotate(0) translate(4 783.26)">
<polygon fill="white" stroke="none" points="-4,4 -4,-783.26 2237,-783.26 2237,4 -4,4"/>
<!-- cp2 -->
<g id="node1" class="node">
<title>cp2</title>
<polygon fill="white" stroke="black" stroke-width="2" points="114,-597 87,-556.5 141,-556.5 114,-597"/>
<text text-anchor="middle" x="114" y="-565.35" font-family="Arial" font-size="12.00">13</text>
<text text-anchor="middle" x="43.5" y="-531.6" font-family="Arial" font-size="12.00">Planning System</text>
</g>
<!-- t11 -->
<g id="node2" class="node">
<title>t11</title>
<polygon fill="#000000" fill-opacity="0.250980" stroke="black" points="184.6,-688 177.4,-688 177.4,-652 184.6,-652 184.6,-688"/>
</g>
<!-- cp2&#45;&gt;t11 -->
<g id="edge1" class="edge">
<title>cp2&#45;&gt;t11</title>
<path fill="none" stroke="black" stroke-dasharray="5,2" d="M123.77,-583.49C138.6,-606.3 167.93,-651.43 177.15,-665.62"/>
</g>
<!-- cp5 -->
<g id="node24" class="node">
<title>cp5</title>
<polygon fill="#000000" fill-opacity="0.250980" stroke="black" stroke-width="2" points="247,-697 220,-656.5 274,-656.5 247,-697"/>
</g>
<!-- t11&#45;&gt;cp5 -->
<g id="edge30" class="edge">
<title>t11&#45;&gt;cp5</title>
<path fill="none" stroke="black" stroke-dasharray="5,2" d="M185.09,-670C192.73,-670 212.99,-670 228.06,-670"/>
</g>
<!-- p0 -->
<g id="node28" class="node">
<title>p0</title>
<ellipse fill="#000080" fill-opacity="0.439216" stroke="#000080" cx="247" cy="-755" rx="18" ry="18"/>
<text text-anchor="start" x="107.5" y="-726.6" font-family="Arial" font-weight="bold" font-size="12.00" fill="#000080">Replenishment Order</text>
</g>
<!-- t11&#45;&gt;p0 -->
<g id="edge31" class="edge">
<title>t11&#45;&gt;p0</title>
<path fill="none" stroke="#000080" d="M185.09,-674.1C192.81,-684.36 213.44,-711.76 228.56,-731.84"/>
<polygon fill="#000080" stroke="#000080" points="225.74,-733.91 234.55,-739.79 231.33,-729.7 225.74,-733.91"/>
</g>
<!-- p24 -->
<g id="node3" class="node">
<title>p24</title>
<ellipse fill="#006165" fill-opacity="0.439216" stroke="#006165" cx="1703" cy="-212" rx="18" ry="18"/>
</g>
<!-- t6 -->
<g id="node4" class="node">
<title>t6</title>
<polygon fill="white" stroke="black" points="1913.62,-281 1766.38,-281 1766.38,-245 1913.62,-245 1913.62,-281"/>
<text text-anchor="middle" x="1840" y="-258.35" font-family="Arial" font-size="12.00">Send Parcel to Customer</text>
</g>
<!-- p24&#45;&gt;t6 -->
<g id="edge2" class="edge">
<title>p24&#45;&gt;t6</title>
<path fill="none" stroke="#006165" d="M1720.28,-218.15C1735.11,-223.75 1757.93,-232.37 1779.62,-240.57"/>
<polygon fill="#006165" stroke="#006165" points="1778.13,-243.75 1788.72,-244.01 1780.6,-237.2 1778.13,-243.75"/>
</g>
<!-- p22 -->
<g id="node21" class="node">
<title>p22</title>
<ellipse fill="#006165" fill-opacity="0.439216" stroke="#006165" cx="1037" cy="-345" rx="18" ry="18"/>
<text text-anchor="middle" x="1037" y="-340.35" font-family="Arial" font-size="12.00">7</text>
<text text-anchor="start" x="1055" y="-316.6" font-family="Arial" font-weight="bold" font-size="12.00" fill="#006165">Warehouse Employee</text>
</g>
<!-- t6&#45;&gt;p22 -->
<g id="edge34" class="edge">
<title>t6&#45;&gt;p22</title>
<path fill="none" stroke="#006165" d="M1807.52,-281.46C1735,-322.76 1549.27,-421.65 1379,-455 1256.56,-478.98 1116.66,-397.86 1061.81,-361.61"/>
<polygon fill="#006165" stroke="#006165" points="1063.8,-358.73 1053.55,-356.05 1059.89,-364.53 1063.8,-358.73"/>
</g>
<!-- p20 -->
<g id="node23" class="node">
<title>p20</title>
<ellipse fill="#a1dfd7" fill-opacity="0.439216" stroke="#a1dfd7" cx="1967" cy="-263" rx="18" ry="18"/>
</g>
<!-- t6&#45;&gt;p20 -->
<g id="edge33" class="edge">
<title>t6&#45;&gt;p20</title>
<path fill="none" stroke="#a1dfd7" d="M1914.07,-263C1922.32,-263 1930.32,-263 1937.47,-263"/>
<polygon fill="#a1dfd7" stroke="#a1dfd7" points="1937.41,-266.5 1947.41,-263 1937.41,-259.5 1937.41,-266.5"/>
</g>
<!-- cp4 -->
<g id="node5" class="node">
<title>cp4</title>
<polygon fill="#000000" fill-opacity="0.250980" stroke="black" stroke-width="2" points="1703,-572 1676,-531.5 1730,-531.5 1703,-572"/>
</g>
<!-- t12 -->
<g id="node6" class="node">
<title>t12</title>
<polygon fill="#000000" fill-opacity="0.250980" stroke="black" points="1530.6,-113 1523.4,-113 1523.4,-77 1530.6,-77 1530.6,-113"/>
</g>
<!-- cp3 -->
<g id="node7" class="node">
<title>cp3</title>
<polygon fill="#000000" fill-opacity="0.250980" stroke="black" stroke-width="2" points="1703,-154 1676,-113.5 1730,-113.5 1703,-154"/>
</g>
<!-- t12&#45;&gt;cp3 -->
<g id="edge3" class="edge">
<title>t12&#45;&gt;cp3</title>
<path fill="none" stroke="black" stroke-dasharray="5,2" d="M1531.02,-95.56C1548.76,-98.82 1640,-115.6 1681.46,-123.22"/>
</g>
<!-- p3 -->
<g id="node8" class="node">
<title>p3</title>
<ellipse fill="#005d4c" fill-opacity="0.439216" stroke="#005d4c" cx="1967" cy="-53" rx="18" ry="18"/>
<text text-anchor="start" x="1846.25" y="-24.6" font-family="Arial" font-weight="bold" font-size="12.00" fill="#005d4c">Incoming Delivery</text>
</g>
<!-- t12&#45;&gt;p3 -->
<g id="edge4" class="edge">
<title>t12&#45;&gt;p3</title>
<path fill="none" stroke="#005d4c" d="M1531.03,-94.71C1563.37,-91.61 1845.38,-64.57 1937.22,-55.76"/>
<polygon fill="#005d4c" stroke="#005d4c" points="1937.51,-59.25 1947.13,-54.81 1936.85,-52.28 1937.51,-59.25"/>
</g>
<!-- t14 -->
<g id="node13" class="node">
<title>t14</title>
<polygon fill="#000000" fill-opacity="0.250980" stroke="black" points="1843.6,-140 1836.4,-140 1836.4,-104 1843.6,-104 1843.6,-140"/>
</g>
<!-- cp3&#45;&gt;t14 -->
<g id="edge14" class="edge">
<title>cp3&#45;&gt;t14</title>
<path fill="none" stroke="black" stroke-dasharray="5,2" d="M1722.49,-126.32C1755.13,-125.11 1820.94,-122.67 1835.92,-122.11"/>
</g>
<!-- t1 -->
<g id="node26" class="node">
<title>t1</title>
<polygon fill="white" stroke="black" points="724.62,-363 577.38,-363 577.38,-327 724.62,-327 724.62,-363"/>
<text text-anchor="middle" x="651" y="-340.35" font-family="Arial" font-size="12.00">Identify incoming Delivery</text>
</g>
<!-- p3&#45;&gt;t1 -->
<g id="edge26" class="edge">
<title>p3&#45;&gt;t1</title>
<path fill="none" stroke="#005d4c" d="M1949.68,-47.33C1908.83,-33.66 1798.67,0 1704,0 1526,0 1526,0 1526,0 1304.33,0 1259.67,-103 1038,-103 907,-103 907,-103 907,-103 784.11,-103 696.78,-252.71 665.1,-316.62"/>
<polygon fill="#005d4c" stroke="#005d4c" points="662.03,-314.92 660.82,-325.45 668.33,-317.98 662.03,-314.92"/>
</g>
<!-- p5 -->
<g id="node9" class="node">
<title>p5</title>
<ellipse fill="#005d4c" fill-opacity="0.439216" stroke="#005d4c" cx="1037" cy="-272" rx="18" ry="18"/>
</g>
<!-- t5 -->
<g id="node10" class="node">
<title>t5</title>
<polygon fill="white" stroke="black" points="1639.62,-303 1414.38,-303 1414.38,-267 1639.62,-267 1639.62,-303"/>
<text text-anchor="middle" x="1527" y="-280.35" font-family="Arial" font-size="12.00">Pick and pack items for Customer Order</text>
</g>
<!-- t5&#45;&gt;cp2 -->
<g id="edge5" class="edge">
<title>t5&#45;&gt;cp2</title>
<path fill="none" stroke="black" stroke-dasharray="5,2" d="M1513.51,-266.53C1481.51,-219.44 1397.75,-97.74 1379,-86 1306.96,-40.9 1275.99,-51 1191,-51 246,-51 246,-51 246,-51 138.9,-51 118.46,-471.76 115.45,-555.58"/>
</g>
<!-- t5&#45;&gt;p24 -->
<g id="edge6" class="edge">
<title>t5&#45;&gt;p24</title>
<path fill="none" stroke="#006165" d="M1571.91,-266.58C1604.65,-252.84 1648.28,-234.54 1675.76,-223.01"/>
<polygon fill="#006165" stroke="#006165" points="1676.86,-226.34 1684.73,-219.25 1674.16,-219.89 1676.86,-226.34"/>
</g>
<!-- t5&#45;&gt;cp4 -->
<g id="edge7" class="edge">
<title>t5&#45;&gt;cp4</title>
<path fill="none" stroke="black" stroke-dasharray="5,2" d="M1540.24,-303.28C1573.11,-352.41 1662.87,-486.53 1692.42,-530.69"/>
</g>
<!-- t5&#45;&gt;cp3 -->
<g id="edge8" class="edge">
<title>t5&#45;&gt;cp3</title>
<path fill="none" stroke="black" stroke-dasharray="5,2" d="M1548.3,-266.57C1585.24,-233.03 1662.25,-163.09 1690.93,-137.05"/>
</g>
<!-- p19 -->
<g id="node11" class="node">
<title>p19</title>
<ellipse fill="#a1dfd7" fill-opacity="0.439216" stroke="#a1dfd7" cx="1703" cy="-285" rx="18" ry="18"/>
</g>
<!-- t5&#45;&gt;p19 -->
<g id="edge9" class="edge">
<title>t5&#45;&gt;p19</title>
<path fill="none" stroke="#a1dfd7" d="M1639.67,-285C1651.96,-285 1663.53,-285 1673.29,-285"/>
<polygon fill="#a1dfd7" stroke="#a1dfd7" points="1673.08,-288.5 1683.08,-285 1673.08,-281.5 1673.08,-288.5"/>
</g>
<!-- p13 -->
<g id="node12" class="node">
<title>p13</title>
<ellipse fill="#6f2b4b" fill-opacity="0.439216" stroke="#6f2b4b" cx="1703" cy="-409" rx="18" ry="18"/>
</g>
<!-- t5&#45;&gt;p13 -->
<g id="edge10" class="edge">
<title>t5&#45;&gt;p13</title>
<path fill="none" stroke="#6f2b4b" d="M1553.67,-303.3C1587.43,-327.35 1646.24,-369.26 1678.75,-392.43"/>
<polygon fill="#6f2b4b" stroke="#6f2b4b" points="1676.52,-395.14 1686.7,-398.1 1680.59,-389.44 1676.52,-395.14"/>
</g>
<!-- p19&#45;&gt;t6 -->
<g id="edge39" class="edge">
<title>p19&#45;&gt;t6</title>
<path fill="none" stroke="#a1dfd7" d="M1721.1,-282.21C1730.15,-280.74 1742.02,-278.8 1754.73,-276.73"/>
<polygon fill="#a1dfd7" stroke="#a1dfd7" points="1755.27,-280.19 1764.58,-275.13 1754.15,-273.28 1755.27,-280.19"/>
</g>
<!-- t9 -->
<g id="node34" class="node">
<title>t9</title>
<polygon fill="#000000" fill-opacity="0.250980" stroke="black" points="1843.6,-427 1836.4,-427 1836.4,-391 1843.6,-391 1843.6,-427"/>
</g>
<!-- p13&#45;&gt;t9 -->
<g id="edge53" class="edge">
<title>p13&#45;&gt;t9</title>
<path fill="none" stroke="#6f2b4b" d="M1721.37,-409C1748.39,-409 1799.96,-409 1824.86,-409"/>
<polygon fill="#6f2b4b" stroke="#6f2b4b" points="1824.74,-412.5 1834.74,-409 1824.74,-405.5 1824.74,-412.5"/>
</g>
<!-- t8 -->
<g id="node36" class="node">
<title>t8</title>
<polygon fill="#000000" fill-opacity="0.250980" stroke="black" points="1843.6,-354 1836.4,-354 1836.4,-318 1843.6,-318 1843.6,-354"/>
</g>
<!-- p13&#45;&gt;t8 -->
<g id="edge54" class="edge">
<title>p13&#45;&gt;t8</title>
<path fill="none" stroke="#6f2b4b" d="M1719.49,-400.63C1746.38,-386.08 1801.23,-356.43 1826.15,-342.95"/>
<polygon fill="#6f2b4b" stroke="#6f2b4b" points="1827.69,-346.09 1834.83,-338.26 1824.36,-339.94 1827.69,-346.09"/>
</g>
<!-- t14&#45;&gt;p3 -->
<g id="edge11" class="edge">
<title>t14&#45;&gt;p3</title>
<path fill="none" stroke="#005d4c" d="M1844.09,-120.29C1857.2,-113.06 1908.97,-84.48 1940.68,-66.98"/>
<polygon fill="#005d4c" stroke="#005d4c" points="1942.19,-70.14 1949.25,-62.24 1938.81,-64.01 1942.19,-70.14"/>
</g>
<!-- p25 -->
<g id="node14" class="node">
<title>p25</title>
<ellipse fill="#00549f" fill-opacity="0.439216" stroke="#00549f" cx="1703" cy="-681" rx="18" ry="18"/>
<text text-anchor="middle" x="1703" y="-676.35" font-family="Arial" font-size="12.00">6</text>
<text text-anchor="start" x="1543.25" y="-652.6" font-family="Arial" font-weight="bold" font-size="12.00" fill="#00549f">Administrative Employee</text>
</g>
<!-- t4 -->
<g id="node15" class="node">
<title>t4</title>
<polygon fill="white" stroke="black" points="1625.75,-625 1428.25,-625 1428.25,-589 1625.75,-589 1625.75,-625"/>
<text text-anchor="middle" x="1527" y="-602.35" font-family="Arial" font-size="12.00">Register incoming Customer Order</text>
</g>
<!-- p25&#45;&gt;t4 -->
<g id="edge12" class="edge">
<title>p25&#45;&gt;t4</title>
<path fill="none" stroke="#00549f" d="M1684.81,-677.92C1657.99,-669.22 1605.49,-647.42 1568.65,-630.1"/>
<polygon fill="#00549f" stroke="#00549f" points="1570.6,-627.16 1560.07,-626 1567.59,-633.47 1570.6,-627.16"/>
</g>
<!-- t0 -->
<g id="node16" class="node">
<title>t0</title>
<polygon fill="white" stroke="black" points="469.62,-693 310.38,-693 310.38,-657 469.62,-657 469.62,-693"/>
<text text-anchor="middle" x="390" y="-670.35" font-family="Arial" font-size="12.00">Place Replenishment Order</text>
</g>
<!-- p25&#45;&gt;t0 -->
<g id="edge13" class="edge">
<title>p25&#45;&gt;t0</title>
<path fill="none" stroke="#00549f" d="M1685.29,-684.96C1635.03,-690 1480.85,-690 1353,-690 650,-690 650,-690 650,-690 593.98,-690 531.17,-688.58 481.43,-686.08"/>
<polygon fill="#00549f" stroke="#00549f" points="481.73,-682.6 471.56,-685.56 481.36,-689.59 481.73,-682.6"/>
</g>
<!-- t4&#45;&gt;cp2 -->
<g id="edge40" class="edge">
<title>t4&#45;&gt;cp2</title>
<path fill="none" stroke="black" stroke-dasharray="5,2" d="M1464.27,-588.57C1397.53,-570.29 1287.71,-545 1191,-545 246,-545 246,-545 246,-545 207.33,-545 163.37,-555.64 137.47,-563.04"/>
</g>
<!-- t4&#45;&gt;cp4 -->
<g id="edge41" class="edge">
<title>t4&#45;&gt;cp4</title>
<path fill="none" stroke="black" stroke-dasharray="5,2" d="M1579.73,-588.57C1616.8,-575.36 1664.15,-558.49 1687.56,-550.15"/>
</g>
<!-- t4&#45;&gt;p25 -->
<g id="edge42" class="edge">
<title>t4&#45;&gt;p25</title>
<path fill="none" stroke="#00549f" d="M1586.42,-625.43C1617.45,-637.87 1653.92,-653.9 1677.48,-665.7"/>
<polygon fill="#00549f" stroke="#00549f" points="1675.79,-668.77 1686.28,-670.26 1679.01,-662.55 1675.79,-668.77"/>
</g>
<!-- p10 -->
<g id="node35" class="node">
<title>p10</title>
<ellipse fill="#6f2b4b" fill-opacity="0.439216" stroke="#6f2b4b" cx="1967" cy="-471" rx="18" ry="18"/>
</g>
<!-- t4&#45;&gt;p10 -->
<g id="edge43" class="edge">
<title>t4&#45;&gt;p10</title>
<path fill="none" stroke="#6f2b4b" d="M1626.08,-600.51C1659.51,-596.69 1696.8,-590.62 1730,-581 1810.88,-557.56 1899.02,-509.99 1941.02,-485.82"/>
<polygon fill="#6f2b4b" stroke="#6f2b4b" points="1942.71,-488.88 1949.6,-480.83 1939.19,-482.83 1942.71,-488.88"/>
</g>
<!-- t0&#45;&gt;cp2 -->
<g id="edge55" class="edge">
<title>t0&#45;&gt;cp2</title>
<path fill="none" stroke="black" stroke-dasharray="5,2" d="M340.95,-656.59C277.22,-632.16 168.27,-590.41 129.35,-575.5"/>
</g>
<!-- t0&#45;&gt;p25 -->
<g id="edge56" class="edge">
<title>t0&#45;&gt;p25</title>
<path fill="none" stroke="#00549f" d="M470.05,-670.08C521.34,-670.35 589.62,-672 650,-672 650,-672 650,-672 1353,-672 1472.36,-672 1614.67,-672 1673.94,-676.1"/>
<polygon fill="#00549f" stroke="#00549f" points="1673.53,-679.58 1683.78,-676.91 1674.1,-672.6 1673.53,-679.58"/>
</g>
<!-- p1 -->
<g id="node25" class="node">
<title>p1</title>
<ellipse fill="#000080" fill-opacity="0.439216" stroke="#000080" cx="524" cy="-414" rx="18" ry="18"/>
</g>
<!-- t0&#45;&gt;p1 -->
<g id="edge57" class="edge">
<title>t0&#45;&gt;p1</title>
<path fill="none" stroke="#000080" d="M400.28,-656.65C423.29,-611.15 483.03,-493.02 509.75,-440.2"/>
<polygon fill="#000080" stroke="#000080" points="512.85,-441.82 514.24,-431.32 506.6,-438.66 512.85,-441.82"/>
</g>
<!-- t3 -->
<g id="node17" class="node">
<title>t3</title>
<polygon fill="white" stroke="black" points="1288.75,-295 1091.25,-295 1091.25,-259 1288.75,-259 1288.75,-295"/>
<text text-anchor="middle" x="1190" y="-272.35" font-family="Arial" font-size="12.00">Place delivered Items into Inventory</text>
</g>
<!-- cp1 -->
<g id="node18" class="node">
<title>cp1</title>
<polygon fill="white" stroke="black" stroke-width="2" points="1352,-298 1325,-257.5 1379,-257.5 1352,-298"/>
<text text-anchor="middle" x="1352" y="-266.35" font-family="Arial" font-size="12.00">13</text>
<text text-anchor="middle" x="1268.38" y="-232.6" font-family="Arial" font-size="12.00">Company Warehouse</text>
</g>
<!-- t3&#45;&gt;cp1 -->
<g id="edge15" class="edge">
<title>t3&#45;&gt;cp1</title>
<path fill="none" stroke="black" stroke-dasharray="5,2" d="M1289.14,-273.32C1306.09,-272.68 1321.89,-272.09 1333.28,-271.66"/>
</g>
<!-- cp0 -->
<g id="node19" class="node">
<title>cp0</title>
<polygon fill="white" stroke="black" stroke-width="2" points="1352,-446 1325,-405.5 1379,-405.5 1352,-446"/>
<text text-anchor="middle" x="1352" y="-414.35" font-family="Arial" font-size="12.00">4</text>
<text text-anchor="middle" x="1268.75" y="-380.6" font-family="Arial" font-size="12.00">PADS Inventory (VMI)</text>
</g>
<!-- t3&#45;&gt;cp0 -->
<g id="edge16" class="edge">
<title>t3&#45;&gt;cp0</title>
<path fill="none" stroke="black" stroke-dasharray="5,2" d="M1211.59,-295.27C1243.83,-323.89 1305.57,-378.68 1334.84,-404.66"/>
</g>
<!-- p8 -->
<g id="node20" class="node">
<title>p8</title>
<ellipse fill="#ce108a" fill-opacity="0.439216" stroke="#ce108a" cx="1352" cy="-186" rx="18" ry="18"/>
</g>
<!-- t3&#45;&gt;p8 -->
<g id="edge17" class="edge">
<title>t3&#45;&gt;p8</title>
<path fill="none" stroke="#ce108a" d="M1223.38,-258.58C1253.82,-241.27 1298.73,-215.73 1326.36,-200.01"/>
<polygon fill="#ce108a" stroke="#ce108a" points="1327.76,-203.24 1334.72,-195.26 1324.3,-197.16 1327.76,-203.24"/>
</g>
<!-- t3&#45;&gt;p22 -->
<g id="edge18" class="edge">
<title>t3&#45;&gt;p22</title>
<path fill="none" stroke="#006165" d="M1160.18,-295.42C1132.96,-309.45 1092.41,-327.68 1065.6,-337.93"/>
<polygon fill="#006165" stroke="#006165" points="1064.64,-334.55 1056.45,-341.28 1067.04,-341.13 1064.64,-334.55"/>
</g>
<!-- cp1&#45;&gt;t5 -->
<g id="edge20" class="edge">
<title>cp1&#45;&gt;t5</title>
<path fill="none" stroke="black" stroke-dasharray="5,2" d="M1370.22,-272.39C1381.42,-273.3 1397.08,-274.57 1414.19,-275.95"/>
</g>
<!-- cp0&#45;&gt;t5 -->
<g id="edge21" class="edge">
<title>cp0&#45;&gt;t5</title>
<path fill="none" stroke="black" stroke-dasharray="5,2" d="M1371.51,-404.66C1403.16,-380.15 1467.58,-330.25 1502.4,-303.28"/>
</g>
<!-- cp0&#45;&gt;t4 -->
<g id="edge22" class="edge">
<title>cp0&#45;&gt;t4</title>
<path fill="none" stroke="black" stroke-dasharray="5,2" d="M1363.3,-430.2C1392.11,-461.5 1473.68,-550.15 1509.17,-588.71"/>
</g>
<!-- p22&#45;&gt;t5 -->
<g id="edge48" class="edge">
<title>p22&#45;&gt;t5</title>
<path fill="none" stroke="#006165" d="M1055.42,-343.29C1105.67,-338.32 1255.25,-323.15 1379,-307 1386.74,-305.99 1394.7,-304.91 1402.73,-303.79"/>
<polygon fill="#006165" stroke="#006165" points="1403.18,-307.27 1412.6,-302.41 1402.21,-300.33 1403.18,-307.27"/>
</g>
<!-- p22&#45;&gt;t3 -->
<g id="edge49" class="edge">
<title>p22&#45;&gt;t3</title>
<path fill="none" stroke="#006165" d="M1051.94,-334.61C1068.24,-325.27 1096.41,-311.73 1122.98,-300.03"/>
<polygon fill="#006165" stroke="#006165" points="1124.28,-303.28 1132.06,-296.09 1121.49,-296.86 1124.28,-303.28"/>
</g>
<!-- t2 -->
<g id="node39" class="node">
<title>t2</title>
<polygon fill="white" stroke="black" points="983.12,-327 832.88,-327 832.88,-291 983.12,-291 983.12,-327"/>
<text text-anchor="middle" x="908" y="-304.35" font-family="Arial" font-size="12.00">Unpack Incoming Delivery</text>
</g>
<!-- p22&#45;&gt;t2 -->
<g id="edge50" class="edge">
<title>p22&#45;&gt;t2</title>
<path fill="none" stroke="#006165" stroke-width="3" d="M1018.61,-344.89C1004.73,-342.43 984.45,-337.31 965.11,-331.61"/>
<polygon fill="#006165" stroke="#006165" stroke-width="3" points="966.22,-328.29 955.63,-328.72 964.17,-334.99 966.22,-328.29"/>
</g>
<!-- p9 -->
<g id="node22" class="node">
<title>p9</title>
<ellipse fill="#6f2b4b" fill-opacity="0.439216" stroke="#6f2b4b" cx="1352" cy="-607" rx="18" ry="18"/>
<text text-anchor="middle" x="1352" y="-602.35" font-family="Arial" font-size="12.00">2</text>
<text text-anchor="start" x="1242.5" y="-578.6" font-family="Arial" font-weight="bold" font-size="12.00" fill="#6f2b4b">Customer Order</text>
</g>
<!-- p9&#45;&gt;t4 -->
<g id="edge19" class="edge">
<title>p9&#45;&gt;t4</title>
<path fill="none" stroke="#6f2b4b" d="M1370.22,-607C1381.9,-607 1398.44,-607 1416.41,-607"/>
<polygon fill="#6f2b4b" stroke="#6f2b4b" points="1416.25,-610.5 1426.25,-607 1416.25,-603.5 1416.25,-610.5"/>
</g>
<!-- cp5&#45;&gt;t0 -->
<g id="edge23" class="edge">
<title>cp5&#45;&gt;t0</title>
<path fill="none" stroke="black" stroke-dasharray="5,2" d="M265.57,-670.62C277.16,-671.03 293.25,-671.6 309.99,-672.2"/>
</g>
<!-- p1&#45;&gt;t1 -->
<g id="edge24" class="edge">
<title>p1&#45;&gt;t1</title>
<path fill="none" stroke="#000080" stroke-width="3" d="M540.33,-405.54C556.21,-396.77 581.79,-382.65 604.26,-370.25"/>
<polygon fill="#000080" stroke="#000080" stroke-width="3" points="605.65,-373.48 612.71,-365.58 602.27,-367.35 605.65,-373.48"/>
</g>
<!-- p2 -->
<g id="node31" class="node">
<title>p2</title>
<ellipse fill="#000080" fill-opacity="0.439216" stroke="#000080" cx="779" cy="-382" rx="18" ry="18"/>
</g>
<!-- t1&#45;&gt;p2 -->
<g id="edge37" class="edge">
<title>t1&#45;&gt;p2</title>
<path fill="none" stroke="#000080" stroke-width="3" d="M715,-363.5C726.36,-366.84 737.72,-370.17 747.6,-373.07"/>
<polygon fill="#000080" stroke="#000080" stroke-width="3" points="746.33,-376.35 756.91,-375.81 748.3,-369.63 746.33,-376.35"/>
</g>
<!-- p4 -->
<g id="node38" class="node">
<title>p4</title>
<ellipse fill="#005d4c" fill-opacity="0.439216" stroke="#005d4c" cx="779" cy="-309" rx="18" ry="18"/>
</g>
<!-- t1&#45;&gt;p4 -->
<g id="edge38" class="edge">
<title>t1&#45;&gt;p4</title>
<path fill="none" stroke="#005d4c" d="M716.48,-326.58C728.4,-323.17 740.25,-319.78 750.33,-316.91"/>
<polygon fill="#005d4c" stroke="#005d4c" points="751.12,-320.32 759.78,-314.21 749.2,-313.59 751.12,-320.32"/>
</g>
<!-- t13 -->
<g id="node27" class="node">
<title>t13</title>
<polygon fill="#000000" fill-opacity="0.250980" stroke="black" points="184.6,-773 177.4,-773 177.4,-737 184.6,-737 184.6,-773"/>
</g>
<!-- t13&#45;&gt;p0 -->
<g id="edge25" class="edge">
<title>t13&#45;&gt;p0</title>
<path fill="none" stroke="#000080" d="M185.09,-755C191.01,-755 204.53,-755 217.34,-755"/>
<polygon fill="#000080" stroke="#000080" points="217.14,-758.5 227.14,-755 217.14,-751.5 217.14,-758.5"/>
</g>
<!-- p0&#45;&gt;t0 -->
<g id="edge32" class="edge">
<title>p0&#45;&gt;t0</title>
<path fill="none" stroke="#000080" d="M263.09,-746.44C282.92,-735.19 318.54,-714.98 346.85,-698.92"/>
<polygon fill="#000080" stroke="#000080" points="348.23,-702.15 355.2,-694.18 344.78,-696.07 348.23,-702.15"/>
</g>
<!-- p18 -->
<g id="node29" class="node">
<title>p18</title>
<ellipse fill="#a1dfd7" fill-opacity="0.439216" stroke="#a1dfd7" cx="1352" cy="-113" rx="18" ry="18"/>
<text text-anchor="start" x="1298" y="-84.6" font-family="Arial" font-weight="bold" font-size="12.00" fill="#a1dfd7">Parcel</text>
</g>
<!-- p18&#45;&gt;t5 -->
<g id="edge27" class="edge">
<title>p18&#45;&gt;t5</title>
<path fill="none" stroke="#a1dfd7" d="M1365.44,-125.37C1393.39,-153.16 1461.65,-221.02 1499.55,-258.7"/>
<polygon fill="#a1dfd7" stroke="#a1dfd7" points="1496.97,-261.07 1506.53,-265.64 1501.9,-256.11 1496.97,-261.07"/>
</g>
<!-- p7 -->
<g id="node30" class="node">
<title>p7</title>
<ellipse fill="#ce108a" fill-opacity="0.439216" stroke="#ce108a" cx="1037" cy="-200" rx="18" ry="18"/>
<text text-anchor="start" x="980" y="-171.6" font-family="Arial" font-weight="bold" font-size="12.00" fill="#ce108a">Palette</text>
</g>
<!-- p7&#45;&gt;t3 -->
<g id="edge28" class="edge">
<title>p7&#45;&gt;t3</title>
<path fill="none" stroke="#ce108a" d="M1053.59,-207.95C1074.51,-218.62 1112.55,-238.02 1143,-253.54"/>
<polygon fill="#ce108a" stroke="#ce108a" points="1141.15,-256.53 1151.65,-257.96 1144.33,-250.29 1141.15,-256.53"/>
</g>
<!-- t10 -->
<g id="node32" class="node">
<title>t10</title>
<polygon fill="white" stroke="black" points="2160.88,-489 2021.12,-489 2021.12,-453 2160.88,-453 2160.88,-489"/>
<text text-anchor="middle" x="2091" y="-466.35" font-family="Arial" font-size="12.00">Cancel Customer Order</text>
</g>
<!-- p11 -->
<g id="node33" class="node">
<title>p11</title>
<ellipse fill="#6f2b4b" fill-opacity="0.439216" stroke="#6f2b4b" cx="2215" cy="-471" rx="18" ry="18"/>
</g>
<!-- t10&#45;&gt;p11 -->
<g id="edge29" class="edge">
<title>t10&#45;&gt;p11</title>
<path fill="none" stroke="#6f2b4b" d="M2161.2,-471C2169.61,-471 2177.8,-471 2185.13,-471"/>
<polygon fill="#6f2b4b" stroke="#6f2b4b" points="2185.02,-474.5 2195.02,-471 2185.02,-467.5 2185.02,-474.5"/>
</g>
<!-- t9&#45;&gt;p10 -->
<g id="edge35" class="edge">
<title>t9&#45;&gt;p10</title>
<path fill="none" stroke="#6f2b4b" d="M1844.09,-410.53C1857.2,-417.03 1908.97,-442.71 1940.68,-458.44"/>
<polygon fill="#6f2b4b" stroke="#6f2b4b" points="1938.71,-461.37 1949.22,-462.68 1941.82,-455.1 1938.71,-461.37"/>
</g>
<!-- p10&#45;&gt;t5 -->
<g id="edge51" class="edge">
<title>p10&#45;&gt;t5</title>
<path fill="none" stroke="#6f2b4b" d="M1948.88,-472.71C1902.29,-476.62 1770.39,-482.51 1676,-436 1618.51,-407.68 1570.6,-347.76 1545.94,-312.51"/>
<polygon fill="#6f2b4b" stroke="#6f2b4b" points="1549.01,-310.79 1540.47,-304.52 1543.23,-314.75 1549.01,-310.79"/>
</g>
<!-- p10&#45;&gt;t10 -->
<g id="edge52" class="edge">
<title>p10&#45;&gt;t10</title>
<path fill="none" stroke="#6f2b4b" d="M1985.48,-471C1992.24,-471 2000.5,-471 2009.37,-471"/>
<polygon fill="#6f2b4b" stroke="#6f2b4b" points="2009.36,-474.5 2019.36,-471 2009.36,-467.5 2009.36,-474.5"/>
</g>
<!-- p14 -->
<g id="node37" class="node">
<title>p14</title>
<ellipse fill="#6f2b4b" fill-opacity="0.439216" stroke="#6f2b4b" cx="1967" cy="-336" rx="18" ry="18"/>
</g>
<!-- t8&#45;&gt;p14 -->
<g id="edge36" class="edge">
<title>t8&#45;&gt;p14</title>
<path fill="none" stroke="#6f2b4b" d="M1844.09,-336C1856.76,-336 1905.55,-336 1937.44,-336"/>
<polygon fill="#6f2b4b" stroke="#6f2b4b" points="1937.2,-339.5 1947.2,-336 1937.2,-332.5 1937.2,-339.5"/>
</g>
<!-- p4&#45;&gt;t2 -->
<g id="edge47" class="edge">
<title>p4&#45;&gt;t2</title>
<path fill="none" stroke="#005d4c" d="M797.39,-309C804.08,-309 812.25,-309 821.08,-309"/>
<polygon fill="#005d4c" stroke="#005d4c" points="821.04,-312.5 831.04,-309 821.04,-305.5 821.04,-312.5"/>
</g>
<!-- t2&#45;&gt;p5 -->
<g id="edge44" class="edge">
<title>t2&#45;&gt;p5</title>
<path fill="none" stroke="#005d4c" d="M972.5,-290.5C985.12,-286.82 997.73,-283.15 1008.35,-280.05"/>
<polygon fill="#005d4c" stroke="#005d4c" points="1009.32,-283.42 1017.94,-277.26 1007.36,-276.7 1009.32,-283.42"/>
</g>
<!-- t2&#45;&gt;p22 -->
<g id="edge46" class="edge">
<title>t2&#45;&gt;p22</title>
<path fill="none" stroke="#006165" stroke-width="3" d="M983.61,-323.49C992.07,-326.03 1000.27,-328.66 1007.56,-331.2"/>
<polygon fill="#006165" stroke="#006165" stroke-width="3" points="1006.22,-334.44 1016.81,-334.64 1008.66,-327.88 1006.22,-334.44"/>
</g>
<!-- t2&#45;&gt;p7 -->
<g id="edge45" class="edge">
<title>t2&#45;&gt;p7</title>
<path fill="none" stroke="#ce108a" stroke-width="3" d="M930.54,-290.51C953.06,-271.18 988.33,-240.91 1011.8,-220.77"/>
<polygon fill="#ce108a" stroke="#ce108a" stroke-width="3" points="1013.81,-223.66 1019.12,-214.49 1009.25,-218.35 1013.81,-223.66"/>
</g>
</g>
</svg>
