<?xml version="1.0" encoding="UTF-8" standalone="no"?>
<!DOCTYPE svg PUBLIC "-//W3C//DTD SVG 1.1//EN"
 "http://www.w3.org/Graphics/SVG/1.1/DTD/svg11.dtd">
<!-- Generated by graphviz version 9.0.0 (20230911.1827)
 -->
<!-- Pages: 1 -->
<svg width="2272pt" height="863pt"
 viewBox="0.00 0.00 2272.00 863.00" xmlns="http://www.w3.org/2000/svg" xmlns:xlink="http://www.w3.org/1999/xlink">
<g id="graph0" class="graph" transform="scale(1 1) rotate(0) translate(4 859)">
<polygon fill="white" stroke="none" points="-4,4 -4,-859 2268,-859 2268,4 -4,4"/>
<!-- t1 -->
<g id="node1" class="node">
<title>t1</title>
<polygon fill="white" stroke="black" points="147.62,-238 0.38,-238 0.38,-202 147.62,-202 147.62,-238"/>
<text text-anchor="middle" x="74" y="-215.35" font-family="Arial" font-size="12.00">Identify incoming Delivery</text>
</g>
<!-- p4 -->
<g id="node2" class="node">
<title>p4</title>
<ellipse fill="#a1dfd7" fill-opacity="0.439216" stroke="#a1dfd7" cx="201" cy="-374" rx="18" ry="18"/>
</g>
<!-- t1&#45;&gt;p4 -->
<g id="edge1" class="edge">
<title>t1&#45;&gt;p4</title>
<path fill="none" stroke="#a1dfd7" d="M89.83,-238.27C112.8,-266.57 156.94,-320.94 181.8,-351.58"/>
<polygon fill="#a1dfd7" stroke="#a1dfd7" points="178.89,-353.54 187.91,-359.1 184.32,-349.13 178.89,-353.54"/>
</g>
<!-- p2 -->
<g id="node3" class="node">
<title>p2</title>
<ellipse fill="#ce108a" fill-opacity="0.439216" stroke="#ce108a" cx="201" cy="-250" rx="18" ry="18"/>
<text text-anchor="middle" x="201" y="-245.35" font-family="Arial" font-size="12.00">6</text>
</g>
<!-- t1&#45;&gt;p2 -->
<g id="edge2" class="edge">
<title>t1&#45;&gt;p2</title>
<path fill="none" stroke="#ce108a" stroke-width="3" d="M148.07,-237.54C155.53,-239.33 162.77,-241.07 169.37,-242.65"/>
<polygon fill="#ce108a" stroke="#ce108a" stroke-width="3" points="168.43,-246.02 178.97,-244.95 170.07,-239.22 168.43,-246.02"/>
</g>
<!-- t2 -->
<g id="node25" class="node">
<title>t2</title>
<polygon fill="white" stroke="black" points="405.12,-420 254.88,-420 254.88,-384 405.12,-384 405.12,-420"/>
<text text-anchor="middle" x="330" y="-397.35" font-family="Arial" font-size="12.00">Unpack Incoming Delivery</text>
</g>
<!-- p4&#45;&gt;t2 -->
<g id="edge19" class="edge">
<title>p4&#45;&gt;t2</title>
<path fill="none" stroke="#a1dfd7" d="M218.86,-377.72C225.75,-379.24 234.27,-381.11 243.49,-383.15"/>
<polygon fill="#a1dfd7" stroke="#a1dfd7" points="242.59,-386.53 253.11,-385.27 244.1,-379.7 242.59,-386.53"/>
</g>
<!-- t3 -->
<g id="node4" class="node">
<title>t3</title>
<polygon fill="white" stroke="black" points="710.75,-447 513.25,-447 513.25,-411 710.75,-411 710.75,-447"/>
<text text-anchor="middle" x="612" y="-424.35" font-family="Arial" font-size="12.00">Place delivered Items into Inventory</text>
</g>
<!-- cp1 -->
<g id="node5" class="node">
<title>cp1</title>
<polygon fill="white" stroke="black" stroke-width="2" points="774,-502 747,-461.5 801,-461.5 774,-502"/>
<text text-anchor="middle" x="774" y="-470.35" font-family="Arial" font-size="12.00">13</text>
<text text-anchor="middle" x="857.62" y="-436.6" font-family="Arial" font-size="12.00">Company Warehouse</text>
</g>
<!-- t3&#45;&gt;cp1 -->
<g id="edge3" class="edge">
<title>t3&#45;&gt;cp1</title>
<path fill="none" stroke="black" stroke-dasharray="5,2" d="M677.16,-447.44C703.24,-454.94 731.66,-463.11 750.73,-468.6"/>
</g>
<!-- p8 -->
<g id="node6" class="node">
<title>p8</title>
<ellipse fill="#8ebae5" fill-opacity="0.439216" stroke="#8ebae5" cx="774" cy="-301" rx="18" ry="18"/>
<text text-anchor="middle" x="774" y="-296.35" font-family="Arial" font-size="12.00">65</text>
</g>
<!-- t3&#45;&gt;p8 -->
<g id="edge4" class="edge">
<title>t3&#45;&gt;p8</title>
<path fill="none" stroke="#8ebae5" d="M635.92,-410.66C666.49,-386.21 720.25,-343.2 750.56,-318.95"/>
<polygon fill="#8ebae5" stroke="#8ebae5" points="752.72,-321.71 758.34,-312.73 748.35,-316.24 752.72,-321.71"/>
</g>
<!-- p22 -->
<g id="node7" class="node">
<title>p22</title>
<ellipse fill="#0098a1" fill-opacity="0.439216" stroke="#0098a1" cx="459" cy="-471" rx="18" ry="18"/>
<text text-anchor="middle" x="459" y="-466.35" font-family="Arial" font-size="12.00">7</text>
<text text-anchor="start" x="315.75" y="-442.6" font-family="Arial" font-weight="bold" font-size="12.00" fill="#0098a1">Warehouse Employee</text>
</g>
<!-- t3&#45;&gt;p22 -->
<g id="edge5" class="edge">
<title>t3&#45;&gt;p22</title>
<path fill="none" stroke="#0098a1" d="M566.89,-447.47C541.64,-455.43 510.67,-463.78 488.59,-468.47"/>
<polygon fill="#0098a1" stroke="#0098a1" points="487.95,-465.03 478.81,-470.39 489.29,-471.9 487.95,-465.03"/>
</g>
<!-- cp0 -->
<g id="node8" class="node">
<title>cp0</title>
<polygon fill="white" stroke="black" stroke-width="2" points="774,-410 747,-369.5 801,-369.5 774,-410"/>
<text text-anchor="middle" x="774" y="-378.35" font-family="Arial" font-size="12.00">4</text>
<text text-anchor="middle" x="690.75" y="-344.6" font-family="Arial" font-size="12.00">PADS Inventory (VMI)</text>
</g>
<!-- t3&#45;&gt;cp0 -->
<g id="edge6" class="edge">
<title>t3&#45;&gt;cp0</title>
<path fill="none" stroke="black" stroke-dasharray="5,2" d="M677.16,-410.56C706.72,-402.06 739.28,-392.69 757.83,-387.36"/>
</g>
<!-- t5 -->
<g id="node17" class="node">
<title>t5</title>
<polygon fill="white" stroke="black" points="1062.62,-564 837.38,-564 837.38,-528 1062.62,-528 1062.62,-564"/>
<text text-anchor="middle" x="950" y="-541.35" font-family="Arial" font-size="12.00">Pick and pack items for Customer Order</text>
</g>
<!-- cp1&#45;&gt;t5 -->
<g id="edge12" class="edge">
<title>cp1&#45;&gt;t5</title>
<path fill="none" stroke="black" stroke-dasharray="5,2" d="M789.24,-480.81C813.99,-490.91 865.95,-512.11 903.91,-527.6"/>
</g>
<!-- p22&#45;&gt;t3 -->
<g id="edge48" class="edge">
<title>p22&#45;&gt;t3</title>
<path fill="none" stroke="#0098a1" d="M475.31,-462.47C484.3,-458.94 496.53,-454.83 509.98,-450.7"/>
<polygon fill="#0098a1" stroke="#0098a1" points="510.97,-454.06 519.54,-447.83 508.96,-447.36 510.97,-454.06"/>
</g>
<!-- p22&#45;&gt;t5 -->
<g id="edge49" class="edge">
<title>p22&#45;&gt;t5</title>
<path fill="none" stroke="#0098a1" d="M477.12,-473.63C531.7,-482 705.14,-508.6 825.8,-527.1"/>
<polygon fill="#0098a1" stroke="#0098a1" points="825.03,-530.53 835.44,-528.58 826.09,-523.61 825.03,-530.53"/>
</g>
<!-- p22&#45;&gt;t2 -->
<g id="edge50" class="edge">
<title>p22&#45;&gt;t2</title>
<path fill="none" stroke="#0098a1" stroke-width="3" d="M441.12,-466.59C422.36,-458.44 391.51,-442.15 367.23,-427.85"/>
<polygon fill="#0098a1" stroke="#0098a1" stroke-width="3" points="369.14,-424.91 358.77,-422.74 365.52,-430.91 369.14,-424.91"/>
</g>
<!-- cp0&#45;&gt;t5 -->
<g id="edge57" class="edge">
<title>cp0&#45;&gt;t5</title>
<path fill="none" stroke="black" stroke-dasharray="5,2" d="M786.15,-393.44C815.1,-420.57 892.96,-493.5 929.53,-527.76"/>
</g>
<!-- t4 -->
<g id="node32" class="node">
<title>t4</title>
<polygon fill="white" stroke="black" points="1925.75,-435 1728.25,-435 1728.25,-399 1925.75,-399 1925.75,-435"/>
<text text-anchor="middle" x="1827" y="-412.35" font-family="Arial" font-size="12.00">Register incoming Customer Order</text>
</g>
<!-- cp0&#45;&gt;t4 -->
<g id="edge56" class="edge">
<title>cp0&#45;&gt;t4</title>
<path fill="none" stroke="black" stroke-dasharray="5,2" d="M794.68,-368.5C846.02,-332.15 989.44,-240 1124,-240 1124,-240 1124,-240 1542,-240 1661.1,-240 1771.57,-353.5 1810.86,-398.72"/>
</g>
<!-- t0 -->
<g id="node9" class="node">
<title>t0</title>
<polygon fill="white" stroke="black" points="1620.62,-431 1461.38,-431 1461.38,-395 1620.62,-395 1620.62,-431"/>
<text text-anchor="middle" x="1541" y="-408.35" font-family="Arial" font-size="12.00">Place Replenishment Order</text>
</g>
<!-- p1 -->
<g id="node10" class="node">
<title>p1</title>
<ellipse fill="#ce108a" fill-opacity="0.439216" stroke="#ce108a" cx="1675" cy="-348" rx="18" ry="18"/>
<text text-anchor="middle" x="1675" y="-343.35" font-family="Arial" font-size="12.00">3</text>
</g>
<!-- t0&#45;&gt;p1 -->
<g id="edge7" class="edge">
<title>t0&#45;&gt;p1</title>
<path fill="none" stroke="#ce108a" d="M1579.47,-394.55C1601.37,-383.77 1628.44,-370.43 1648,-360.8"/>
<polygon fill="#ce108a" stroke="#ce108a" points="1649.5,-363.97 1656.92,-356.41 1646.4,-357.69 1649.5,-363.97"/>
</g>
<!-- cp2 -->
<g id="node11" class="node">
<title>cp2</title>
<polygon fill="white" stroke="black" stroke-width="2" points="1125,-501 1098,-460.5 1152,-460.5 1125,-501"/>
<text text-anchor="middle" x="1125" y="-469.35" font-family="Arial" font-size="12.00">13</text>
<text text-anchor="middle" x="1054.5" y="-435.6" font-family="Arial" font-size="12.00">Planning System</text>
</g>
<!-- t0&#45;&gt;cp2 -->
<g id="edge8" class="edge">
<title>t0&#45;&gt;cp2</title>
<path fill="none" stroke="black" stroke-dasharray="5,2" d="M1499.14,-394.57C1477.57,-385.85 1450.38,-376.39 1425,-372 1320.96,-354.01 1280.28,-341.04 1188.38,-393 1161.18,-408.37 1141.9,-440.89 1132.5,-459.72"/>
</g>
<!-- p25 -->
<g id="node12" class="node">
<title>p25</title>
<ellipse fill="#00549f" fill-opacity="0.439216" stroke="#00549f" cx="1675" cy="-417" rx="18" ry="18"/>
<text text-anchor="middle" x="1675" y="-412.35" font-family="Arial" font-size="12.00">5</text>
<text text-anchor="start" x="1693" y="-388.6" font-family="Arial" font-weight="bold" font-size="12.00" fill="#00549f">Administrative Employee</text>
</g>
<!-- t0&#45;&gt;p25 -->
<g id="edge9" class="edge">
<title>t0&#45;&gt;p25</title>
<path fill="none" stroke="#00549f" d="M1621.07,-408.77C1630.04,-409.2 1638.68,-409.8 1646.28,-410.54"/>
<polygon fill="#00549f" stroke="#00549f" points="1645.78,-414.01 1656.12,-411.69 1646.59,-407.05 1645.78,-414.01"/>
</g>
<!-- p1&#45;&gt;t1 -->
<g id="edge39" class="edge">
<title>p1&#45;&gt;t1</title>
<path fill="none" stroke="#ce108a" stroke-width="3" d="M1661.99,-334.88C1626.07,-297.15 1514.72,-191 1399,-191 329,-191 329,-191 329,-191 273.25,-191 211.07,-197.98 162.18,-205.09"/>
<polygon fill="#ce108a" stroke="#ce108a" stroke-width="3" points="161.97,-201.58 152.6,-206.52 163.01,-208.51 161.97,-201.58"/>
</g>
<!-- t11 -->
<g id="node13" class="node">
<title>t11</title>
<polygon fill="#000000" fill-opacity="0.250980" stroke="black" points="1265.6,-438 1258.4,-438 1258.4,-402 1265.6,-402 1265.6,-438"/>
</g>
<!-- cp2&#45;&gt;t11 -->
<g id="edge45" class="edge">
<title>cp2&#45;&gt;t11</title>
<path fill="none" stroke="black" stroke-dasharray="5,2" d="M1150.76,-464.1C1185.17,-450.33 1244.74,-426.5 1258.23,-421.11"/>
</g>
<!-- p25&#45;&gt;t0 -->
<g id="edge54" class="edge">
<title>p25&#45;&gt;t0</title>
<path fill="none" stroke="#00549f" d="M1657.16,-421.18C1650.24,-421.72 1641.66,-422 1632.32,-422.06"/>
<polygon fill="#00549f" stroke="#00549f" points="1632.6,-418.56 1622.58,-422.03 1632.57,-425.56 1632.6,-418.56"/>
</g>
<!-- p25&#45;&gt;t4 -->
<g id="edge55" class="edge">
<title>p25&#45;&gt;t4</title>
<path fill="none" stroke="#00549f" d="M1692.92,-412.54C1699.51,-411.84 1707.64,-411.3 1716.61,-410.92"/>
<polygon fill="#00549f" stroke="#00549f" points="1716.53,-414.43 1726.41,-410.59 1716.3,-407.43 1716.53,-414.43"/>
</g>
<!-- cp5 -->
<g id="node14" class="node">
<title>cp5</title>
<polygon fill="#000000" fill-opacity="0.250980" stroke="black" stroke-width="2" points="1398,-435 1371,-394.5 1425,-394.5 1398,-435"/>
</g>
<!-- t11&#45;&gt;cp5 -->
<g id="edge10" class="edge">
<title>t11&#45;&gt;cp5</title>
<path fill="none" stroke="black" stroke-dasharray="5,2" d="M1265.8,-419.75C1280.38,-418.44 1348.21,-412.37 1380.21,-409.5"/>
</g>
<!-- p0 -->
<g id="node15" class="node">
<title>p0</title>
<ellipse fill="#ce108a" fill-opacity="0.439216" stroke="#ce108a" cx="1398" cy="-489" rx="18" ry="18"/>
<text text-anchor="start" x="1258.5" y="-460.6" font-family="Arial" font-weight="bold" font-size="12.00" fill="#ce108a">Replenishment Order</text>
</g>
<!-- t11&#45;&gt;p0 -->
<g id="edge11" class="edge">
<title>t11&#45;&gt;p0</title>
<path fill="none" stroke="#ce108a" d="M1265.8,-421.44C1279.16,-428.32 1337.23,-458.22 1371.47,-475.85"/>
<polygon fill="#ce108a" stroke="#ce108a" points="1369.83,-478.94 1380.32,-480.41 1373.03,-472.72 1369.83,-478.94"/>
</g>
<!-- cp5&#45;&gt;t0 -->
<g id="edge40" class="edge">
<title>cp5&#45;&gt;t0</title>
<path fill="none" stroke="black" stroke-dasharray="5,2" d="M1416.57,-408.62C1428.16,-409.03 1444.25,-409.6 1460.99,-410.2"/>
</g>
<!-- p0&#45;&gt;t0 -->
<g id="edge41" class="edge">
<title>p0&#45;&gt;t0</title>
<path fill="none" stroke="#ce108a" d="M1414.36,-480.72C1433.81,-470.24 1468.15,-451.73 1496.02,-436.7"/>
<polygon fill="#ce108a" stroke="#ce108a" points="1497.48,-439.89 1504.62,-432.07 1494.16,-433.73 1497.48,-439.89"/>
</g>
<!-- p14 -->
<g id="node16" class="node">
<title>p14</title>
<ellipse fill="#005d4c" fill-opacity="0.439216" stroke="#005d4c" cx="1398" cy="-657" rx="18" ry="18"/>
<text text-anchor="middle" x="1398" y="-652.35" font-family="Arial" font-size="12.00">52</text>
</g>
<!-- t5&#45;&gt;cp2 -->
<g id="edge38" class="edge">
<title>t5&#45;&gt;cp2</title>
<path fill="none" stroke="black" stroke-dasharray="5,2" d="M995.1,-527.65C1032.94,-511.9 1085.17,-490.16 1109.91,-479.86"/>
</g>
<!-- p24 -->
<g id="node18" class="node">
<title>p24</title>
<ellipse fill="#0098a1" fill-opacity="0.439216" stroke="#0098a1" cx="1125" cy="-726" rx="18" ry="18"/>
</g>
<!-- t5&#45;&gt;p24 -->
<g id="edge33" class="edge">
<title>t5&#45;&gt;p24</title>
<path fill="none" stroke="#0098a1" d="M968.54,-564.25C1000.85,-597.87 1069.59,-669.38 1103.79,-704.97"/>
<polygon fill="#0098a1" stroke="#0098a1" points="1101.2,-707.33 1110.65,-712.11 1106.25,-702.48 1101.2,-707.33"/>
</g>
<!-- p19 -->
<g id="node20" class="node">
<title>p19</title>
<ellipse fill="#006165" fill-opacity="0.439216" stroke="#006165" cx="1125" cy="-795" rx="18" ry="18"/>
</g>
<!-- t5&#45;&gt;p19 -->
<g id="edge34" class="edge">
<title>t5&#45;&gt;p19</title>
<path fill="none" stroke="#006165" d="M963.72,-564.31C994.53,-608.65 1073.12,-721.77 1107.49,-771.24"/>
<polygon fill="#006165" stroke="#006165" points="1104.49,-773.06 1113.07,-779.27 1110.24,-769.06 1104.49,-773.06"/>
</g>
<!-- cp3 -->
<g id="node23" class="node">
<title>cp3</title>
<polygon fill="#000000" fill-opacity="0.250980" stroke="black" stroke-width="2" points="1125,-147 1098,-106.5 1152,-106.5 1125,-147"/>
</g>
<!-- t5&#45;&gt;cp3 -->
<g id="edge35" class="edge">
<title>t5&#45;&gt;cp3</title>
<path fill="none" stroke="black" stroke-dasharray="5,2" d="M958.43,-527.7C987.02,-457.3 1089.64,-204.61 1117.16,-136.83"/>
</g>
<!-- p13 -->
<g id="node27" class="node">
<title>p13</title>
<ellipse fill="#005d4c" fill-opacity="0.439216" stroke="#005d4c" cx="1125" cy="-657" rx="18" ry="18"/>
</g>
<!-- t5&#45;&gt;p13 -->
<g id="edge36" class="edge">
<title>t5&#45;&gt;p13</title>
<path fill="none" stroke="#005d4c" d="M979.57,-564.33C1013.17,-585.89 1068.35,-621.29 1099.89,-641.53"/>
<polygon fill="#005d4c" stroke="#005d4c" points="1097.66,-644.26 1107.97,-646.71 1101.44,-638.37 1097.66,-644.26"/>
</g>
<!-- cp4 -->
<g id="node33" class="node">
<title>cp4</title>
<polygon fill="#000000" fill-opacity="0.250980" stroke="black" stroke-width="2" points="1989,-380 1962,-339.5 2016,-339.5 1989,-380"/>
</g>
<!-- t5&#45;&gt;cp4 -->
<g id="edge37" class="edge">
<title>t5&#45;&gt;cp4</title>
<path fill="none" stroke="black" stroke-dasharray="5,2" d="M961.21,-527.52C995.29,-468.59 1111.39,-289 1261,-289 1261,-289 1261,-289 1676,-289 1785.76,-289 1912.89,-327.48 1964.46,-344.76"/>
</g>
<!-- t6 -->
<g id="node19" class="node">
<title>t6</title>
<polygon fill="white" stroke="black" points="1335.62,-813 1188.38,-813 1188.38,-777 1335.62,-777 1335.62,-813"/>
<text text-anchor="middle" x="1262" y="-790.35" font-family="Arial" font-size="12.00">Send Parcel to Customer</text>
</g>
<!-- p24&#45;&gt;t6 -->
<g id="edge13" class="edge">
<title>p24&#45;&gt;t6</title>
<path fill="none" stroke="#0098a1" d="M1141.49,-733.92C1159.26,-743 1189.24,-758.32 1214.73,-771.35"/>
<polygon fill="#0098a1" stroke="#0098a1" points="1213.12,-774.46 1223.62,-775.89 1216.31,-768.23 1213.12,-774.46"/>
</g>
<!-- t6&#45;&gt;p22 -->
<g id="edge18" class="edge">
<title>t6&#45;&gt;p22</title>
<path fill="none" stroke="#0098a1" d="M1201.65,-813.49C1139.74,-831.12 1039.53,-855 951,-855 773,-855 773,-855 773,-855 589.44,-855 494.4,-588.12 467.86,-499.34"/>
<polygon fill="#0098a1" stroke="#0098a1" points="471.29,-498.57 465.12,-489.95 464.57,-500.53 471.29,-498.57"/>
</g>
<!-- p20 -->
<g id="node24" class="node">
<title>p20</title>
<ellipse fill="#006165" fill-opacity="0.439216" stroke="#006165" cx="1398" cy="-795" rx="18" ry="18"/>
<text text-anchor="middle" x="1398" y="-790.35" font-family="Arial" font-size="12.00">52</text>
</g>
<!-- t6&#45;&gt;p20 -->
<g id="edge17" class="edge">
<title>t6&#45;&gt;p20</title>
<path fill="none" stroke="#006165" d="M1335.88,-795C1347.36,-795 1358.61,-795 1368.27,-795"/>
<polygon fill="#006165" stroke="#006165" points="1368.03,-798.5 1378.03,-795 1368.03,-791.5 1368.03,-798.5"/>
</g>
<!-- p19&#45;&gt;t6 -->
<g id="edge14" class="edge">
<title>p19&#45;&gt;t6</title>
<path fill="none" stroke="#006165" d="M1143.37,-795C1152.41,-795 1164.18,-795 1176.79,-795"/>
<polygon fill="#006165" stroke="#006165" points="1176.52,-798.5 1186.52,-795 1176.52,-791.5 1176.52,-798.5"/>
</g>
<!-- t14 -->
<g id="node21" class="node">
<title>t14</title>
<polygon fill="#000000" fill-opacity="0.250980" stroke="black" points="1265.6,-133 1258.4,-133 1258.4,-97 1265.6,-97 1265.6,-133"/>
</g>
<!-- p3 -->
<g id="node22" class="node">
<title>p3</title>
<ellipse fill="#a1dfd7" fill-opacity="0.439216" stroke="#a1dfd7" cx="1398" cy="-49" rx="18" ry="18"/>
<text text-anchor="start" x="1277.25" y="-20.6" font-family="Arial" font-weight="bold" font-size="12.00" fill="#a1dfd7">Incoming Delivery</text>
</g>
<!-- t14&#45;&gt;p3 -->
<g id="edge15" class="edge">
<title>t14&#45;&gt;p3</title>
<path fill="none" stroke="#a1dfd7" d="M1265.8,-113.62C1279.16,-107.04 1337.23,-78.44 1371.47,-61.57"/>
<polygon fill="#a1dfd7" stroke="#a1dfd7" points="1372.88,-64.78 1380.31,-57.22 1369.79,-58.5 1372.88,-64.78"/>
</g>
<!-- p3&#45;&gt;t1 -->
<g id="edge32" class="edge">
<title>p3&#45;&gt;t1</title>
<path fill="none" stroke="#a1dfd7" d="M1380.38,-43.85C1338.27,-31.27 1223.77,0 1126,0 329,0 329,0 329,0 213.15,0 124.2,-132.37 90.12,-191.76"/>
<polygon fill="#a1dfd7" stroke="#a1dfd7" points="87.17,-189.87 85.32,-200.3 93.27,-193.3 87.17,-189.87"/>
</g>
<!-- cp3&#45;&gt;t14 -->
<g id="edge16" class="edge">
<title>cp3&#45;&gt;t14</title>
<path fill="none" stroke="black" stroke-dasharray="5,2" d="M1144.49,-119.32C1177.13,-118.11 1242.94,-115.67 1257.92,-115.11"/>
</g>
<!-- t2&#45;&gt;p22 -->
<g id="edge53" class="edge">
<title>t2&#45;&gt;p22</title>
<path fill="none" stroke="#0098a1" stroke-width="3" d="M376.85,-420.4C395.72,-430.13 416.85,-441.95 432.82,-451.81"/>
<polygon fill="#0098a1" stroke="#0098a1" stroke-width="3" points="430.73,-454.63 441.04,-457.09 434.52,-448.74 430.73,-454.63"/>
</g>
<!-- p5 -->
<g id="node35" class="node">
<title>p5</title>
<ellipse fill="#a1dfd7" fill-opacity="0.439216" stroke="#a1dfd7" cx="459" cy="-332" rx="18" ry="18"/>
<text text-anchor="middle" x="459" y="-327.35" font-family="Arial" font-size="12.00">10</text>
</g>
<!-- t2&#45;&gt;p5 -->
<g id="edge51" class="edge">
<title>t2&#45;&gt;p5</title>
<path fill="none" stroke="#a1dfd7" d="M364.37,-383.61C385.82,-371.78 413.25,-356.66 432.87,-345.85"/>
<polygon fill="#a1dfd7" stroke="#a1dfd7" points="434.48,-348.96 441.55,-341.07 431.1,-342.83 434.48,-348.96"/>
</g>
<!-- p7 -->
<g id="node38" class="node">
<title>p7</title>
<ellipse fill="#8ebae5" fill-opacity="0.439216" stroke="#8ebae5" cx="459" cy="-402" rx="18" ry="18"/>
<text text-anchor="middle" x="459" y="-397.35" font-family="Arial" font-size="12.00">10</text>
<text text-anchor="start" x="402" y="-373.6" font-family="Arial" font-weight="bold" font-size="12.00" fill="#8ebae5">Palette</text>
</g>
<!-- t2&#45;&gt;p7 -->
<g id="edge52" class="edge">
<title>t2&#45;&gt;p7</title>
<path fill="none" stroke="#8ebae5" stroke-width="3" d="M405.61,-402C412.92,-402 420.02,-402 426.52,-402"/>
<polygon fill="#8ebae5" stroke="#8ebae5" stroke-width="3" points="426.25,-405.5 436.25,-402 426.25,-398.5 426.25,-405.5"/>
</g>
<!-- p18 -->
<g id="node26" class="node">
<title>p18</title>
<ellipse fill="#006165" fill-opacity="0.439216" stroke="#006165" cx="774" cy="-605" rx="18" ry="18"/>
<text text-anchor="start" x="720" y="-576.6" font-family="Arial" font-weight="bold" font-size="12.00" fill="#006165">Parcel</text>
</g>
<!-- p18&#45;&gt;t5 -->
<g id="edge20" class="edge">
<title>p18&#45;&gt;t5</title>
<path fill="none" stroke="#006165" d="M791.37,-599.45C812.52,-592.28 850.58,-579.37 884.01,-568.04"/>
<polygon fill="#006165" stroke="#006165" points="884.89,-571.43 893.24,-564.91 882.64,-564.8 884.89,-571.43"/>
</g>
<!-- t8 -->
<g id="node28" class="node">
<title>t8</title>
<polygon fill="#000000" fill-opacity="0.250980" stroke="black" points="1265.6,-675 1258.4,-675 1258.4,-639 1265.6,-639 1265.6,-675"/>
</g>
<!-- p13&#45;&gt;t8 -->
<g id="edge21" class="edge">
<title>p13&#45;&gt;t8</title>
<path fill="none" stroke="#005d4c" d="M1143.37,-657C1170.39,-657 1221.96,-657 1246.86,-657"/>
<polygon fill="#005d4c" stroke="#005d4c" points="1246.74,-660.5 1256.74,-657 1246.74,-653.5 1246.74,-660.5"/>
</g>
<!-- t9 -->
<g id="node29" class="node">
<title>t9</title>
<polygon fill="#000000" fill-opacity="0.250980" stroke="black" points="1544.6,-704 1537.4,-704 1537.4,-668 1544.6,-668 1544.6,-704"/>
</g>
<!-- p13&#45;&gt;t9 -->
<g id="edge22" class="edge">
<title>p13&#45;&gt;t9</title>
<path fill="none" stroke="#005d4c" d="M1141.31,-665.71C1153.6,-672.17 1171.52,-680.46 1188.38,-684 1316.95,-711.02 1477.87,-694.02 1525.86,-687.92"/>
<polygon fill="#005d4c" stroke="#005d4c" points="1526.19,-691.41 1535.64,-686.62 1525.26,-684.47 1526.19,-691.41"/>
</g>
<!-- t8&#45;&gt;p14 -->
<g id="edge29" class="edge">
<title>t8&#45;&gt;p14</title>
<path fill="none" stroke="#005d4c" d="M1265.8,-657C1278.78,-657 1333.92,-657 1368.46,-657"/>
<polygon fill="#005d4c" stroke="#005d4c" points="1368.2,-660.5 1378.2,-657 1368.2,-653.5 1368.2,-660.5"/>
</g>
<!-- p10 -->
<g id="node30" class="node">
<title>p10</title>
<ellipse fill="#005d4c" fill-opacity="0.439216" stroke="#005d4c" cx="1989" cy="-597" rx="18" ry="18"/>
</g>
<!-- t9&#45;&gt;p10 -->
<g id="edge47" class="edge">
<title>t9&#45;&gt;p10</title>
<path fill="none" stroke="#005d4c" d="M1545.08,-685.43C1571.83,-680.5 1767.64,-644.22 1925.75,-611 1937.05,-608.62 1949.48,-605.86 1960.23,-603.42"/>
<polygon fill="#005d4c" stroke="#005d4c" points="1960.68,-606.91 1969.64,-601.27 1959.11,-600.09 1960.68,-606.91"/>
</g>
<!-- p10&#45;&gt;t5 -->
<g id="edge24" class="edge">
<title>p10&#45;&gt;t5</title>
<path fill="none" stroke="#005d4c" d="M1970.75,-597C1923.57,-597 1788.4,-597 1676,-597 1261,-597 1261,-597 1261,-597 1182.92,-597 1095.23,-581.05 1033.09,-566.99"/>
<polygon fill="#005d4c" stroke="#005d4c" points="1034.18,-563.65 1023.65,-564.82 1032.61,-570.48 1034.18,-563.65"/>
</g>
<!-- t10 -->
<g id="node31" class="node">
<title>t10</title>
<polygon fill="white" stroke="black" points="2191.88,-615 2052.12,-615 2052.12,-579 2191.88,-579 2191.88,-615"/>
<text text-anchor="middle" x="2122" y="-592.35" font-family="Arial" font-size="12.00">Cancel Customer Order</text>
</g>
<!-- p10&#45;&gt;t10 -->
<g id="edge23" class="edge">
<title>p10&#45;&gt;t10</title>
<path fill="none" stroke="#005d4c" d="M2007.4,-597C2016.44,-597 2028.21,-597 2040.74,-597"/>
<polygon fill="#005d4c" stroke="#005d4c" points="2040.38,-600.5 2050.38,-597 2040.38,-593.5 2040.38,-600.5"/>
</g>
<!-- p11 -->
<g id="node36" class="node">
<title>p11</title>
<ellipse fill="#005d4c" fill-opacity="0.439216" stroke="#005d4c" cx="2246" cy="-597" rx="18" ry="18"/>
<text text-anchor="middle" x="2246" y="-592.35" font-family="Arial" font-size="12.00">3</text>
</g>
<!-- t10&#45;&gt;p11 -->
<g id="edge31" class="edge">
<title>t10&#45;&gt;p11</title>
<path fill="none" stroke="#005d4c" d="M2192.2,-597C2200.61,-597 2208.8,-597 2216.13,-597"/>
<polygon fill="#005d4c" stroke="#005d4c" points="2216.02,-600.5 2226.02,-597 2216.02,-593.5 2216.02,-600.5"/>
</g>
<!-- t4&#45;&gt;cp2 -->
<g id="edge27" class="edge">
<title>t4&#45;&gt;cp2</title>
<path fill="none" stroke="black" stroke-dasharray="5,2" d="M1769.7,-435.5C1692.84,-459.68 1550.28,-500.76 1425,-516 1320.6,-528.7 1288.96,-546.71 1188.38,-516 1168.15,-509.82 1148.54,-494.65 1136.87,-484.33"/>
</g>
<!-- t4&#45;&gt;p25 -->
<g id="edge28" class="edge">
<title>t4&#45;&gt;p25</title>
<path fill="none" stroke="#00549f" d="M1727.92,-423.46C1719.43,-423.24 1711.38,-422.89 1704.26,-422.41"/>
<polygon fill="#00549f" stroke="#00549f" points="1704.68,-418.94 1694.42,-421.59 1704.1,-425.91 1704.68,-418.94"/>
</g>
<!-- t4&#45;&gt;p10 -->
<g id="edge25" class="edge">
<title>t4&#45;&gt;p10</title>
<path fill="none" stroke="#005d4c" d="M1844.22,-435.25C1873.96,-468.7 1937.05,-539.68 1968.84,-575.45"/>
<polygon fill="#005d4c" stroke="#005d4c" points="1965.95,-577.46 1975.21,-582.61 1971.18,-572.81 1965.95,-577.46"/>
</g>
<!-- t4&#45;&gt;cp4 -->
<g id="edge26" class="edge">
<title>t4&#45;&gt;cp4</title>
<path fill="none" stroke="black" stroke-dasharray="5,2" d="M1873.85,-398.66C1907.65,-385.14 1951.46,-367.62 1973.69,-358.72"/>
</g>
<!-- t13 -->
<g id="node34" class="node">
<title>t13</title>
<polygon fill="#000000" fill-opacity="0.250980" stroke="black" points="1265.6,-507 1258.4,-507 1258.4,-471 1265.6,-471 1265.6,-507"/>
</g>
<!-- t13&#45;&gt;p0 -->
<g id="edge30" class="edge">
<title>t13&#45;&gt;p0</title>
<path fill="none" stroke="#ce108a" d="M1265.8,-489C1278.78,-489 1333.92,-489 1368.46,-489"/>
<polygon fill="#ce108a" stroke="#ce108a" points="1368.2,-492.5 1378.2,-489 1368.2,-485.5 1368.2,-492.5"/>
</g>
<!-- t12 -->
<g id="node37" class="node">
<title>t12</title>
<polygon fill="#000000" fill-opacity="0.250980" stroke="black" points="953.6,-109 946.4,-109 946.4,-73 953.6,-73 953.6,-109"/>
</g>
<!-- t12&#45;&gt;p3 -->
<g id="edge43" class="edge">
<title>t12&#45;&gt;p3</title>
<path fill="none" stroke="#a1dfd7" d="M954.09,-90.71C987.08,-87.6 1275.41,-60.45 1368.3,-51.7"/>
<polygon fill="#a1dfd7" stroke="#a1dfd7" points="1368.45,-55.2 1378.08,-50.78 1367.79,-48.23 1368.45,-55.2"/>
</g>
<!-- t12&#45;&gt;cp3 -->
<g id="edge42" class="edge">
<title>t12&#45;&gt;cp3</title>
<path fill="none" stroke="black" stroke-dasharray="5,2" d="M954,-91.5C971.64,-94.46 1062.36,-109.67 1103.58,-116.58"/>
</g>
<!-- p7&#45;&gt;t3 -->
<g id="edge44" class="edge">
<title>p7&#45;&gt;t3</title>
<path fill="none" stroke="#8ebae5" d="M477.03,-405.04C483.85,-406.26 492.31,-407.78 501.63,-409.44"/>
<polygon fill="#8ebae5" stroke="#8ebae5" points="500.99,-412.88 511.45,-411.2 502.22,-405.99 500.99,-412.88"/>
</g>
<!-- p9 -->
<g id="node39" class="node">
<title>p9</title>
<ellipse fill="#005d4c" fill-opacity="0.439216" stroke="#005d4c" cx="1675" cy="-538" rx="18" ry="18"/>
<text text-anchor="start" x="1565.5" y="-509.6" font-family="Arial" font-weight="bold" font-size="12.00" fill="#005d4c">Customer Order</text>
</g>
<!-- p9&#45;&gt;t4 -->
<g id="edge46" class="edge">
<title>p9&#45;&gt;t4</title>
<path fill="none" stroke="#005d4c" d="M1689.58,-527.05C1713.11,-508.07 1762.06,-468.58 1794.47,-442.43"/>
<polygon fill="#005d4c" stroke="#005d4c" points="1796.38,-445.39 1801.96,-436.39 1791.98,-439.95 1796.38,-445.39"/>
</g>
</g>
</svg>
